<svg xmlns="http://www.w3.org/2000/svg" xmlns:xlink="http://www.w3.org/1999/xlink" width="185" zoomAndPan="magnify" viewBox="0 0 138.75 53.25" height="71" preserveAspectRatio="xMidYMid meet" version="1.0"><defs><g/><clipPath id="c734385aeb"><path d="M 107 9 L 136.8125 9 L 136.8125 51.769531 L 107 51.769531 Z M 107 9 " clip-rule="nonzero"/></clipPath><clipPath id="07f5606124"><path d="M 89.480469 0 L 119 0 L 119 43 L 89.480469 43 Z M 89.480469 0 " clip-rule="nonzero"/></clipPath></defs><g clip-path="url(#c734385aeb)"><path fill="#ff7512" d="M 137.066406 51.617188 C 135.695312 49.433594 134.324219 47.253906 132.953125 45.070312 L 130.894531 41.808594 L 128.828125 38.539062 L 124.691406 32.011719 L 120.808594 25.898438 L 125.808594 18.558594 L 127.125 16.628906 C 127.5625 15.984375 128 15.339844 128.445312 14.699219 L 131.101562 10.859375 L 132.179688 9.304688 L 118 9.210938 L 117.699219 9.746094 C 117.261719 10.527344 116.835938 11.3125 116.40625 12.097656 L 116.082031 12.6875 L 115.765625 13.28125 L 115.125 14.464844 L 113.863281 16.835938 L 113.21875 18.058594 C 112.972656 17.6875 112.726562 17.316406 112.480469 16.941406 L 111.726562 15.816406 L 110.964844 14.691406 L 110.203125 13.570312 L 109.429688 12.453125 C 108.914062 11.710938 108.390625 10.972656 107.859375 10.238281 C 107.820312 10.175781 107.769531 10.160156 107.707031 10.199219 C 107.644531 10.234375 107.628906 10.285156 107.667969 10.347656 C 108.054688 11.167969 108.449219 11.980469 108.859375 12.789062 L 109.46875 14.003906 L 110.085938 15.210938 L 110.710938 16.414062 L 111.339844 17.617188 C 111.761719 18.414062 112.1875 19.214844 112.613281 20.011719 L 113.234375 21.15625 L 113.972656 20 C 114.453125 19.246094 114.921875 18.484375 115.398438 17.722656 L 116.8125 15.441406 L 117.515625 14.292969 L 118.210938 13.152344 C 118.5625 12.570312 118.914062 11.988281 119.265625 11.40625 C 119.542969 11.40625 128.019531 11.375 128.355469 11.367188 L 126.898438 13.683594 C 126.484375 14.339844 126.0625 14.996094 125.644531 15.652344 L 124.386719 17.621094 L 119.351562 25.488281 L 119.085938 25.898438 L 119.351562 26.28125 L 123.71875 32.65625 L 128.09375 39.023438 L 130.285156 42.207031 L 132.480469 45.386719 C 133.945312 47.511719 135.410156 49.628906 136.882812 51.742188 C 136.925781 51.800781 136.976562 51.808594 137.035156 51.769531 C 137.09375 51.730469 137.105469 51.679688 137.066406 51.621094 Z M 137.066406 51.617188 " fill-opacity="1" fill-rule="nonzero"/></g><g clip-path="url(#07f5606124)"><path fill="#ff7512" d="M 117.722656 38.980469 L 117.113281 37.765625 L 116.496094 36.558594 L 115.871094 35.355469 L 115.242188 34.152344 C 114.816406 33.355469 114.394531 32.554688 113.964844 31.761719 L 113.347656 30.613281 L 112.609375 31.769531 C 112.128906 32.523438 111.65625 33.285156 111.183594 34.046875 L 109.765625 36.328125 L 109.066406 37.476562 L 108.714844 38.046875 L 108.367188 38.617188 C 108.019531 39.199219 107.667969 39.78125 107.320312 40.363281 C 107.042969 40.363281 98.566406 40.394531 98.230469 40.402344 L 99.683594 38.089844 C 100.097656 37.429688 100.519531 36.773438 100.9375 36.117188 L 102.195312 34.148438 L 107.230469 26.28125 L 107.492188 25.871094 L 107.230469 25.492188 L 102.863281 19.128906 L 98.488281 12.773438 L 96.296875 9.59375 L 94.101562 6.421875 C 92.636719 4.304688 91.171875 2.195312 89.695312 0.0859375 C 89.65625 0.0273438 89.609375 0.0195312 89.550781 0.0546875 C 89.488281 0.09375 89.476562 0.144531 89.515625 0.203125 C 90.886719 2.382812 92.257812 4.558594 93.625 6.734375 L 95.683594 10 L 97.75 13.257812 L 101.890625 19.773438 L 105.773438 25.871094 L 100.777344 33.214844 L 99.460938 35.144531 C 99.019531 35.785156 98.582031 36.429688 98.140625 37.070312 L 95.480469 40.914062 L 94.40625 42.464844 L 108.585938 42.558594 L 108.886719 42.023438 C 109.320312 41.238281 109.75 40.453125 110.179688 39.667969 L 110.503906 39.078125 L 110.824219 38.488281 L 111.460938 37.304688 L 112.71875 34.933594 L 113.363281 33.710938 L 114.101562 34.828125 L 114.855469 35.953125 L 115.617188 37.078125 L 116.378906 38.199219 L 117.148438 39.316406 C 117.664062 40.0625 118.191406 40.800781 118.722656 41.53125 C 118.761719 41.585938 118.808594 41.59375 118.867188 41.5625 C 118.921875 41.527344 118.9375 41.480469 118.910156 41.421875 C 118.527344 40.605469 118.128906 39.792969 117.722656 38.980469 Z M 117.722656 38.980469 " fill-opacity="1" fill-rule="nonzero"/></g><g fill="#000000" fill-opacity="1"><g transform="translate(8.683501, 36.791864)"><g><path d="M 1.203125 -22.765625 L 3.84375 -22.765625 C 3.882812 -22.765625 3.90625 -22.734375 3.90625 -22.671875 L 3.90625 0 C 3.90625 0.0625 3.882812 0.09375 3.84375 0.09375 L 1.203125 0.09375 C 1.140625 0.09375 1.109375 0.0625 1.109375 0 L 1.109375 -22.671875 C 1.109375 -22.734375 1.140625 -22.765625 1.203125 -22.765625 Z M 1.203125 -22.765625 "/></g></g></g><g fill="#000000" fill-opacity="1"><g transform="translate(13.726374, 36.791864)"><g><path d="M 1.203125 -22.765625 L 4.78125 -22.765625 C 4.84375 -22.765625 4.875 -22.734375 4.875 -22.671875 C 4.875 -22.628906 4.84375 -22.609375 4.78125 -22.609375 L 2.921875 -22.609375 C 3.378906 -22.429688 3.816406 -22.175781 4.234375 -21.84375 C 4.660156 -21.507812 4.992188 -21.113281 5.234375 -20.65625 L 15.25 -0.359375 L 15.25 -22.671875 C 15.25 -22.734375 15.273438 -22.765625 15.328125 -22.765625 C 15.390625 -22.765625 15.421875 -22.734375 15.421875 -22.671875 L 15.421875 0 C 15.421875 0.0625 15.390625 0.09375 15.328125 0.09375 L 12.390625 0.09375 C 12.347656 0.09375 12.328125 0.0703125 12.328125 0.03125 L 1.265625 -22.3125 L 1.265625 0 C 1.265625 0.0625 1.242188 0.09375 1.203125 0.09375 C 1.140625 0.09375 1.109375 0.0625 1.109375 0 L 1.109375 -22.671875 C 1.109375 -22.734375 1.140625 -22.765625 1.203125 -22.765625 Z M 1.203125 -22.765625 "/></g></g></g><g fill="#000000" fill-opacity="1"><g transform="translate(30.286498, 36.791864)"><g><path d="M 15.421875 -5.65625 C 15.421875 -4.613281 15.160156 -3.65625 14.640625 -2.78125 C 14.117188 -1.90625 13.421875 -1.207031 12.546875 -0.6875 C 11.679688 -0.164062 10.71875 0.09375 9.65625 0.09375 L 6.859375 0.09375 C 5.796875 0.09375 4.832031 -0.164062 3.96875 -0.6875 C 3.101562 -1.207031 2.410156 -1.90625 1.890625 -2.78125 C 1.367188 -3.65625 1.109375 -4.613281 1.109375 -5.65625 C 1.109375 -5.726562 1.140625 -5.765625 1.203125 -5.765625 C 1.242188 -5.765625 1.265625 -5.726562 1.265625 -5.65625 C 1.265625 -4.632812 1.519531 -3.703125 2.03125 -2.859375 C 2.539062 -2.015625 3.21875 -1.34375 4.0625 -0.84375 C 4.90625 -0.34375 5.835938 -0.09375 6.859375 -0.09375 L 9.65625 -0.09375 C 10.195312 -0.09375 10.691406 -0.34375 11.140625 -0.84375 C 11.585938 -1.34375 11.945312 -2.015625 12.21875 -2.859375 C 12.488281 -3.703125 12.625 -4.632812 12.625 -5.65625 C 12.625 -6.695312 12.488281 -7.640625 12.21875 -8.484375 C 11.945312 -9.335938 11.585938 -10.007812 11.140625 -10.5 C 10.691406 -11 10.195312 -11.25 9.65625 -11.25 L 6.859375 -11.25 C 5.796875 -11.25 4.832031 -11.507812 3.96875 -12.03125 C 3.101562 -12.550781 2.410156 -13.242188 1.890625 -14.109375 C 1.367188 -14.984375 1.109375 -15.953125 1.109375 -17.015625 C 1.109375 -18.078125 1.367188 -19.039062 1.890625 -19.90625 C 2.410156 -20.769531 3.101562 -21.460938 3.96875 -21.984375 C 4.832031 -22.503906 5.796875 -22.765625 6.859375 -22.765625 L 9.65625 -22.765625 C 10.71875 -22.765625 11.679688 -22.503906 12.546875 -21.984375 C 13.421875 -21.460938 14.117188 -20.769531 14.640625 -19.90625 C 15.160156 -19.039062 15.421875 -18.078125 15.421875 -17.015625 C 15.421875 -16.953125 15.390625 -16.921875 15.328125 -16.921875 C 15.273438 -16.921875 15.25 -16.953125 15.25 -17.015625 C 15.25 -18.035156 14.992188 -18.96875 14.484375 -19.8125 C 13.984375 -20.65625 13.304688 -21.332031 12.453125 -21.84375 C 11.609375 -22.351562 10.675781 -22.609375 9.65625 -22.609375 L 6.859375 -22.609375 C 6.316406 -22.609375 5.820312 -22.351562 5.375 -21.84375 C 4.9375 -21.332031 4.582031 -20.65625 4.3125 -19.8125 C 4.039062 -18.96875 3.90625 -18.035156 3.90625 -17.015625 C 3.90625 -15.992188 4.039062 -15.0625 4.3125 -14.21875 C 4.582031 -13.375 4.9375 -12.695312 5.375 -12.1875 C 5.820312 -11.675781 6.316406 -11.421875 6.859375 -11.421875 L 9.65625 -11.421875 C 10.71875 -11.421875 11.679688 -11.164062 12.546875 -10.65625 C 13.421875 -10.144531 14.117188 -9.445312 14.640625 -8.5625 C 15.160156 -7.6875 15.421875 -6.71875 15.421875 -5.65625 Z M 15.421875 -5.65625 "/></g></g></g><g fill="#000000" fill-opacity="1"><g transform="translate(46.846622, 36.791864)"><g><path d="M 1.203125 -22.765625 L 3.84375 -22.765625 C 3.882812 -22.765625 3.90625 -22.734375 3.90625 -22.671875 L 3.90625 0 C 3.90625 0.0625 3.882812 0.09375 3.84375 0.09375 L 1.203125 0.09375 C 1.140625 0.09375 1.109375 0.0625 1.109375 0 L 1.109375 -22.671875 C 1.109375 -22.734375 1.140625 -22.765625 1.203125 -22.765625 Z M 1.203125 -22.765625 "/></g></g></g><g fill="#000000" fill-opacity="1"><g transform="translate(51.889495, 36.791864)"><g><path d="M 4.453125 -19.421875 C 5.535156 -20.503906 6.769531 -21.332031 8.15625 -21.90625 C 9.550781 -22.476562 11.007812 -22.765625 12.53125 -22.765625 C 14.0625 -22.765625 15.519531 -22.476562 16.90625 -21.90625 C 18.300781 -21.332031 19.539062 -20.503906 20.625 -19.421875 C 20.644531 -19.378906 20.644531 -19.335938 20.625 -19.296875 C 20.582031 -19.242188 20.539062 -19.242188 20.5 -19.296875 C 19.4375 -20.359375 18.21875 -21.175781 16.84375 -21.75 C 15.476562 -22.320312 14.039062 -22.609375 12.53125 -22.609375 C 11.332031 -22.609375 10.210938 -22.316406 9.171875 -21.734375 C 8.128906 -21.148438 7.210938 -20.34375 6.421875 -19.3125 C 5.628906 -18.28125 5.007812 -17.078125 4.5625 -15.703125 C 4.125 -14.335938 3.90625 -12.890625 3.90625 -11.359375 C 3.90625 -9.878906 4.109375 -8.484375 4.515625 -7.171875 C 4.929688 -5.859375 5.492188 -4.695312 6.203125 -3.6875 C 6.921875 -2.675781 7.765625 -1.859375 8.734375 -1.234375 C 9.703125 -0.609375 10.738281 -0.238281 11.84375 -0.125 C 12.863281 -0.0625 13.878906 -0.132812 14.890625 -0.34375 C 15.910156 -0.550781 16.890625 -0.90625 17.828125 -1.40625 L 17.828125 -11.359375 C 17.828125 -11.398438 17.859375 -11.421875 17.921875 -11.421875 L 20.5625 -11.421875 C 20.601562 -11.421875 20.625 -11.398438 20.625 -11.359375 C 20.625 -11.285156 20.601562 -11.25 20.5625 -11.25 L 19.265625 -11.25 C 19.671875 -11.082031 20 -10.8125 20.25 -10.4375 C 20.5 -10.070312 20.625 -9.648438 20.625 -9.171875 L 20.625 0 C 20.625 0.0625 20.601562 0.09375 20.5625 0.09375 L 17.921875 0.09375 C 17.859375 0.09375 17.828125 0.0625 17.828125 0 L 17.828125 -1.203125 C 16.179688 -0.359375 14.425781 0.0703125 12.5625 0.09375 C 12.539062 0.09375 12.53125 0.09375 12.53125 0.09375 C 12.457031 0.09375 12.378906 0.09375 12.296875 0.09375 C 11.835938 0.0703125 11.394531 0.03125 10.96875 -0.03125 C 8.425781 -0.375 6.253906 -1.445312 4.453125 -3.25 C 3.328125 -4.375 2.488281 -5.628906 1.9375 -7.015625 C 1.382812 -8.410156 1.109375 -9.847656 1.109375 -11.328125 C 1.109375 -12.816406 1.382812 -14.257812 1.9375 -15.65625 C 2.488281 -17.0625 3.328125 -18.316406 4.453125 -19.421875 Z M 4.453125 -19.421875 "/></g></g></g><g fill="#000000" fill-opacity="1"><g transform="translate(73.655145, 36.791864)"><g><path d="M 3.90625 -11.421875 L 12.625 -11.421875 L 12.625 -22.671875 C 12.625 -22.734375 12.644531 -22.765625 12.6875 -22.765625 L 15.328125 -22.765625 C 15.390625 -22.765625 15.421875 -22.734375 15.421875 -22.671875 L 15.421875 0 C 15.421875 0.0625 15.390625 0.09375 15.328125 0.09375 L 12.6875 0.09375 C 12.644531 0.09375 12.625 0.0625 12.625 0 C 12.625 -0.0625 12.644531 -0.09375 12.6875 -0.09375 L 13.984375 -0.09375 C 13.578125 -0.269531 13.25 -0.539062 13 -0.90625 C 12.75 -1.28125 12.625 -1.703125 12.625 -2.171875 L 12.625 -11.25 L 3.90625 -11.25 L 3.90625 0 C 3.90625 0.0625 3.882812 0.09375 3.84375 0.09375 L 1.203125 0.09375 C 1.140625 0.09375 1.109375 0.0625 1.109375 0 L 1.109375 -22.671875 C 1.109375 -22.734375 1.140625 -22.765625 1.203125 -22.765625 L 3.84375 -22.765625 C 3.882812 -22.765625 3.90625 -22.734375 3.90625 -22.671875 C 3.90625 -22.628906 3.882812 -22.609375 3.84375 -22.609375 L 2.53125 -22.609375 C 2.945312 -22.429688 3.28125 -22.148438 3.53125 -21.765625 C 3.78125 -21.390625 3.90625 -20.976562 3.90625 -20.53125 Z M 3.90625 -11.421875 "/></g></g></g><g fill="#000000" fill-opacity="1"><g transform="translate(90.21527, 36.791864)"><g><path d="M 1.203125 -22.609375 C 1.140625 -22.609375 1.109375 -22.628906 1.109375 -22.671875 C 1.109375 -22.734375 1.140625 -22.765625 1.203125 -22.765625 L 9.5625 -22.765625 C 9.582031 -22.765625 9.59375 -22.765625 9.59375 -22.765625 L 15.328125 -22.765625 C 15.390625 -22.765625 15.421875 -22.734375 15.421875 -22.671875 C 15.421875 -22.628906 15.390625 -22.609375 15.328125 -22.609375 L 9.65625 -22.609375 L 9.65625 0 C 9.65625 0.0625 9.625 0.09375 9.5625 0.09375 L 6.921875 0.09375 C 6.878906 0.09375 6.859375 0.0625 6.859375 0 L 6.859375 -22.609375 Z M 1.203125 -22.609375 "/></g></g></g></svg>