<svg xmlns="http://www.w3.org/2000/svg" xmlns:xlink="http://www.w3.org/1999/xlink" width="192" zoomAndPan="magnify" viewBox="0 0 144 56.249996" height="75" preserveAspectRatio="xMidYMid meet" version="1.0"><defs><g/><clipPath id="eba3c0d9d6"><path d="M 111 9 L 142.105469 9 L 142.105469 54.03125 L 111 54.03125 Z M 111 9 " clip-rule="nonzero"/></clipPath><clipPath id="d1c6c0af00"><path d="M 92.515625 0 L 124 0 L 124 45 L 92.515625 45 Z M 92.515625 0 " clip-rule="nonzero"/></clipPath></defs><g clip-path="url(#eba3c0d9d6)"><path fill="#ff7512" d="M 142.285156 53.984375 C 140.855469 51.703125 139.421875 49.421875 137.988281 47.140625 L 135.832031 43.722656 L 133.671875 40.308594 L 129.34375 33.480469 L 125.28125 27.085938 L 130.511719 19.40625 L 131.886719 17.390625 C 132.347656 16.71875 132.804688 16.042969 133.269531 15.375 L 136.050781 11.355469 L 137.175781 9.730469 L 122.34375 9.632812 L 122.03125 10.191406 C 121.574219 11.007812 121.128906 11.832031 120.675781 12.652344 L 120.339844 13.269531 L 120.007812 13.890625 L 119.339844 15.125 L 118.015625 17.605469 L 117.34375 18.886719 C 117.085938 18.496094 116.828125 18.109375 116.570312 17.71875 L 115.785156 16.539062 L 114.988281 15.363281 L 114.191406 14.191406 L 113.382812 13.023438 C 112.84375 12.246094 112.292969 11.472656 111.738281 10.707031 C 111.699219 10.640625 111.644531 10.625 111.578125 10.664062 C 111.511719 10.703125 111.5 10.753906 111.539062 10.820312 C 111.941406 11.679688 112.359375 12.527344 112.785156 13.375 L 113.421875 14.644531 L 114.070312 15.90625 L 114.722656 17.167969 L 115.378906 18.421875 C 115.824219 19.257812 116.265625 20.09375 116.714844 20.925781 L 117.359375 22.128906 L 118.132812 20.917969 C 118.636719 20.125 119.128906 19.332031 119.625 18.535156 L 121.105469 16.148438 L 121.839844 14.949219 L 122.566406 13.753906 C 122.933594 13.144531 123.304688 12.539062 123.667969 11.929688 C 123.957031 11.929688 132.824219 11.894531 133.175781 11.886719 L 131.652344 14.308594 C 131.21875 14.996094 130.777344 15.679688 130.34375 16.367188 L 129.027344 18.425781 L 123.757812 26.65625 L 123.484375 27.085938 L 123.757812 27.484375 L 128.324219 34.152344 L 132.90625 40.816406 L 135.195312 44.144531 L 137.492188 47.46875 C 139.019531 49.691406 140.554688 51.90625 142.097656 54.113281 C 142.140625 54.175781 142.191406 54.1875 142.253906 54.144531 C 142.316406 54.105469 142.328125 54.050781 142.285156 53.988281 Z M 142.285156 53.984375 " fill-opacity="1" fill-rule="nonzero"/></g><g clip-path="url(#d1c6c0af00)"><path fill="#ff7512" d="M 122.054688 40.769531 L 121.417969 39.5 L 120.769531 38.234375 L 120.117188 36.976562 L 119.460938 35.71875 C 119.015625 34.882812 118.578125 34.046875 118.125 33.214844 L 117.480469 32.015625 L 116.707031 33.226562 C 116.203125 34.015625 115.710938 34.8125 115.214844 35.605469 L 113.734375 37.996094 L 113 39.195312 L 112.632812 39.792969 L 112.273438 40.390625 C 111.90625 40.996094 111.539062 41.605469 111.175781 42.214844 C 110.886719 42.214844 102.019531 42.25 101.667969 42.253906 L 103.1875 39.835938 C 103.621094 39.144531 104.0625 38.460938 104.5 37.773438 L 105.8125 35.714844 L 111.082031 27.484375 L 111.355469 27.058594 L 111.082031 26.660156 L 106.515625 20.003906 L 101.9375 13.355469 L 99.648438 10.035156 L 97.347656 6.714844 C 95.820312 4.5 94.285156 2.292969 92.742188 0.0859375 C 92.703125 0.0273438 92.648438 0.015625 92.589844 0.0546875 C 92.527344 0.09375 92.515625 0.148438 92.554688 0.210938 C 93.988281 2.488281 95.417969 4.765625 96.851562 7.042969 L 99.007812 10.457031 L 101.167969 13.863281 L 105.496094 20.679688 L 109.554688 27.058594 L 104.332031 34.734375 L 102.953125 36.753906 C 102.492188 37.425781 102.039062 38.101562 101.574219 38.769531 L 98.792969 42.789062 L 97.667969 44.414062 L 112.5 44.511719 L 112.8125 43.949219 C 113.269531 43.128906 113.71875 42.308594 114.167969 41.488281 L 114.503906 40.871094 L 114.839844 40.25 L 115.507812 39.015625 L 116.824219 36.535156 L 117.496094 35.257812 L 118.269531 36.425781 L 119.054688 37.605469 L 119.851562 38.78125 L 120.648438 39.953125 L 121.457031 41.121094 C 121.996094 41.898438 122.542969 42.671875 123.101562 43.4375 C 123.144531 43.492188 123.191406 43.503906 123.25 43.46875 C 123.308594 43.433594 123.324219 43.382812 123.296875 43.320312 C 122.894531 42.46875 122.480469 41.617188 122.054688 40.769531 Z M 122.054688 40.769531 " fill-opacity="1" fill-rule="nonzero"/></g><g fill="#ffffff" fill-opacity="1"><g transform="translate(7.95349, 38.993722)"><g><path d="M 1.265625 -23.828125 L 4.015625 -23.828125 C 4.054688 -23.828125 4.078125 -23.789062 4.078125 -23.71875 L 4.078125 0 C 4.078125 0.0703125 4.054688 0.109375 4.015625 0.109375 L 1.265625 0.109375 C 1.191406 0.109375 1.15625 0.0703125 1.15625 0 L 1.15625 -23.71875 C 1.15625 -23.789062 1.191406 -23.828125 1.265625 -23.828125 Z M 1.265625 -23.828125 "/></g></g></g><g fill="#ffffff" fill-opacity="1"><g transform="translate(13.227433, 38.993722)"><g><path d="M 1.265625 -23.828125 L 5 -23.828125 C 5.070312 -23.828125 5.109375 -23.789062 5.109375 -23.71875 C 5.109375 -23.675781 5.070312 -23.65625 5 -23.65625 L 3.0625 -23.65625 C 3.539062 -23.46875 4 -23.195312 4.4375 -22.84375 C 4.882812 -22.5 5.234375 -22.085938 5.484375 -21.609375 L 15.953125 -0.375 L 15.953125 -23.71875 C 15.953125 -23.789062 15.976562 -23.828125 16.03125 -23.828125 C 16.09375 -23.828125 16.125 -23.789062 16.125 -23.71875 L 16.125 0 C 16.125 0.0703125 16.09375 0.109375 16.03125 0.109375 L 12.96875 0.109375 C 12.914062 0.109375 12.890625 0.0820312 12.890625 0.03125 L 1.328125 -23.34375 L 1.328125 0 C 1.328125 0.0703125 1.304688 0.109375 1.265625 0.109375 C 1.191406 0.109375 1.15625 0.0703125 1.15625 0 L 1.15625 -23.71875 C 1.15625 -23.789062 1.191406 -23.828125 1.265625 -23.828125 Z M 1.265625 -23.828125 "/></g></g></g><g fill="#ffffff" fill-opacity="1"><g transform="translate(30.546364, 38.993722)"><g><path d="M 16.125 -5.921875 C 16.125 -4.828125 15.851562 -3.820312 15.3125 -2.90625 C 14.769531 -1.988281 14.046875 -1.253906 13.140625 -0.703125 C 12.234375 -0.160156 11.222656 0.109375 10.109375 0.109375 L 7.1875 0.109375 C 6.070312 0.109375 5.0625 -0.160156 4.15625 -0.703125 C 3.25 -1.253906 2.519531 -1.988281 1.96875 -2.90625 C 1.425781 -3.820312 1.15625 -4.828125 1.15625 -5.921875 C 1.15625 -5.992188 1.191406 -6.03125 1.265625 -6.03125 C 1.304688 -6.03125 1.328125 -5.992188 1.328125 -5.921875 C 1.328125 -4.859375 1.59375 -3.882812 2.125 -3 C 2.65625 -2.113281 3.363281 -1.410156 4.25 -0.890625 C 5.132812 -0.367188 6.113281 -0.109375 7.1875 -0.109375 L 10.109375 -0.109375 C 10.671875 -0.109375 11.1875 -0.367188 11.65625 -0.890625 C 12.125 -1.410156 12.5 -2.113281 12.78125 -3 C 13.0625 -3.882812 13.203125 -4.859375 13.203125 -5.921875 C 13.203125 -7.015625 13.0625 -8 12.78125 -8.875 C 12.5 -9.757812 12.125 -10.460938 11.65625 -10.984375 C 11.1875 -11.515625 10.671875 -11.78125 10.109375 -11.78125 L 7.1875 -11.78125 C 6.070312 -11.78125 5.0625 -12.050781 4.15625 -12.59375 C 3.25 -13.132812 2.519531 -13.859375 1.96875 -14.765625 C 1.425781 -15.671875 1.15625 -16.679688 1.15625 -17.796875 C 1.15625 -18.910156 1.425781 -19.921875 1.96875 -20.828125 C 2.519531 -21.734375 3.25 -22.457031 4.15625 -23 C 5.0625 -23.550781 6.070312 -23.828125 7.1875 -23.828125 L 10.109375 -23.828125 C 11.222656 -23.828125 12.234375 -23.550781 13.140625 -23 C 14.046875 -22.457031 14.769531 -21.734375 15.3125 -20.828125 C 15.851562 -19.921875 16.125 -18.910156 16.125 -17.796875 C 16.125 -17.734375 16.09375 -17.703125 16.03125 -17.703125 C 15.976562 -17.703125 15.953125 -17.734375 15.953125 -17.796875 C 15.953125 -18.859375 15.6875 -19.832031 15.15625 -20.71875 C 14.625 -21.601562 13.914062 -22.3125 13.03125 -22.84375 C 12.144531 -23.382812 11.171875 -23.65625 10.109375 -23.65625 L 7.1875 -23.65625 C 6.613281 -23.65625 6.09375 -23.382812 5.625 -22.84375 C 5.164062 -22.3125 4.789062 -21.601562 4.5 -20.71875 C 4.21875 -19.832031 4.078125 -18.859375 4.078125 -17.796875 C 4.078125 -16.734375 4.21875 -15.757812 4.5 -14.875 C 4.789062 -13.988281 5.164062 -13.273438 5.625 -12.734375 C 6.09375 -12.203125 6.613281 -11.9375 7.1875 -11.9375 L 10.109375 -11.9375 C 11.222656 -11.9375 12.234375 -11.671875 13.140625 -11.140625 C 14.046875 -10.609375 14.769531 -9.882812 15.3125 -8.96875 C 15.851562 -8.050781 16.125 -7.035156 16.125 -5.921875 Z M 16.125 -5.921875 "/></g></g></g><g fill="#ffffff" fill-opacity="1"><g transform="translate(47.865294, 38.993722)"><g><path d="M 1.265625 -23.828125 L 4.015625 -23.828125 C 4.054688 -23.828125 4.078125 -23.789062 4.078125 -23.71875 L 4.078125 0 C 4.078125 0.0703125 4.054688 0.109375 4.015625 0.109375 L 1.265625 0.109375 C 1.191406 0.109375 1.15625 0.0703125 1.15625 0 L 1.15625 -23.71875 C 1.15625 -23.789062 1.191406 -23.828125 1.265625 -23.828125 Z M 1.265625 -23.828125 "/></g></g></g><g fill="#ffffff" fill-opacity="1"><g transform="translate(53.139237, 38.993722)"><g><path d="M 4.65625 -20.3125 C 5.789062 -21.445312 7.082031 -22.316406 8.53125 -22.921875 C 9.988281 -23.523438 11.515625 -23.828125 13.109375 -23.828125 C 14.710938 -23.828125 16.238281 -23.523438 17.6875 -22.921875 C 19.144531 -22.316406 20.441406 -21.445312 21.578125 -20.3125 C 21.597656 -20.269531 21.597656 -20.226562 21.578125 -20.1875 C 21.523438 -20.132812 21.476562 -20.132812 21.4375 -20.1875 C 20.320312 -21.289062 19.050781 -22.144531 17.625 -22.75 C 16.195312 -23.351562 14.691406 -23.65625 13.109375 -23.65625 C 11.859375 -23.65625 10.6875 -23.347656 9.59375 -22.734375 C 8.507812 -22.117188 7.550781 -21.269531 6.71875 -20.1875 C 5.894531 -19.113281 5.25 -17.863281 4.78125 -16.4375 C 4.3125 -15.007812 4.078125 -13.488281 4.078125 -11.875 C 4.078125 -10.332031 4.289062 -8.875 4.71875 -7.5 C 5.15625 -6.125 5.75 -4.910156 6.5 -3.859375 C 7.25 -2.804688 8.128906 -1.953125 9.140625 -1.296875 C 10.148438 -0.640625 11.234375 -0.253906 12.390625 -0.140625 C 13.453125 -0.0664062 14.515625 -0.140625 15.578125 -0.359375 C 16.648438 -0.578125 17.675781 -0.945312 18.65625 -1.46875 L 18.65625 -11.875 C 18.65625 -11.914062 18.6875 -11.9375 18.75 -11.9375 L 21.5 -11.9375 C 21.550781 -11.9375 21.578125 -11.914062 21.578125 -11.875 C 21.578125 -11.8125 21.550781 -11.78125 21.5 -11.78125 L 20.140625 -11.78125 C 20.578125 -11.59375 20.925781 -11.304688 21.1875 -10.921875 C 21.445312 -10.535156 21.578125 -10.09375 21.578125 -9.59375 L 21.578125 0 C 21.578125 0.0703125 21.550781 0.109375 21.5 0.109375 L 18.75 0.109375 C 18.6875 0.109375 18.65625 0.0703125 18.65625 0 L 18.65625 -1.265625 C 16.925781 -0.378906 15.085938 0.078125 13.140625 0.109375 C 13.117188 0.109375 13.109375 0.109375 13.109375 0.109375 C 13.035156 0.109375 12.953125 0.109375 12.859375 0.109375 C 12.390625 0.078125 11.925781 0.03125 11.46875 -0.03125 C 8.8125 -0.394531 6.539062 -1.519531 4.65625 -3.40625 C 3.476562 -4.582031 2.597656 -5.894531 2.015625 -7.34375 C 1.441406 -8.800781 1.15625 -10.304688 1.15625 -11.859375 C 1.15625 -13.410156 1.441406 -14.914062 2.015625 -16.375 C 2.597656 -17.84375 3.476562 -19.15625 4.65625 -20.3125 Z M 4.65625 -20.3125 "/></g></g></g><g fill="#ffffff" fill-opacity="1"><g transform="translate(75.902218, 38.993722)"><g><path d="M 4.078125 -11.9375 L 13.203125 -11.9375 L 13.203125 -23.71875 C 13.203125 -23.789062 13.222656 -23.828125 13.265625 -23.828125 L 16.03125 -23.828125 C 16.09375 -23.828125 16.125 -23.789062 16.125 -23.71875 L 16.125 0 C 16.125 0.0703125 16.09375 0.109375 16.03125 0.109375 L 13.265625 0.109375 C 13.222656 0.109375 13.203125 0.0703125 13.203125 0 C 13.203125 -0.0703125 13.222656 -0.109375 13.265625 -0.109375 L 14.640625 -0.109375 C 14.203125 -0.285156 13.851562 -0.566406 13.59375 -0.953125 C 13.332031 -1.335938 13.203125 -1.78125 13.203125 -2.28125 L 13.203125 -11.78125 L 4.078125 -11.78125 L 4.078125 0 C 4.078125 0.0703125 4.054688 0.109375 4.015625 0.109375 L 1.265625 0.109375 C 1.191406 0.109375 1.15625 0.0703125 1.15625 0 L 1.15625 -23.71875 C 1.15625 -23.789062 1.191406 -23.828125 1.265625 -23.828125 L 4.015625 -23.828125 C 4.054688 -23.828125 4.078125 -23.789062 4.078125 -23.71875 C 4.078125 -23.675781 4.054688 -23.65625 4.015625 -23.65625 L 2.65625 -23.65625 C 3.082031 -23.46875 3.425781 -23.175781 3.6875 -22.78125 C 3.945312 -22.382812 4.078125 -21.945312 4.078125 -21.46875 Z M 4.078125 -11.9375 "/></g></g></g><g fill="#ffffff" fill-opacity="1"><g transform="translate(93.221148, 38.993722)"><g><path d="M 1.265625 -23.65625 C 1.191406 -23.65625 1.15625 -23.675781 1.15625 -23.71875 C 1.15625 -23.789062 1.191406 -23.828125 1.265625 -23.828125 L 10 -23.828125 C 10.03125 -23.828125 10.046875 -23.828125 10.046875 -23.828125 L 16.03125 -23.828125 C 16.09375 -23.828125 16.125 -23.789062 16.125 -23.71875 C 16.125 -23.675781 16.09375 -23.65625 16.03125 -23.65625 L 10.109375 -23.65625 L 10.109375 0 C 10.109375 0.0703125 10.070312 0.109375 10 0.109375 L 7.25 0.109375 C 7.207031 0.109375 7.1875 0.0703125 7.1875 0 L 7.1875 -23.65625 Z M 1.265625 -23.65625 "/></g></g></g></svg>