<svg xmlns="http://www.w3.org/2000/svg" xmlns:xlink="http://www.w3.org/1999/xlink" width="500" zoomAndPan="magnify" viewBox="0 0 375 374.999991" height="500" preserveAspectRatio="xMidYMid meet" version="1.0"><defs><g/><clipPath id="945317619e"><path d="M 204 144 L 219.210938 144 L 219.210938 165.5 L 204 165.5 Z M 204 144 " clip-rule="nonzero"/></clipPath><clipPath id="591a05ea44"><path d="M 195.960938 140 L 211 140 L 211 161 L 195.960938 161 Z M 195.960938 140 " clip-rule="nonzero"/></clipPath><clipPath id="331a15f08f"><path d="M 131.25 162.601562 L 243.75 162.601562 L 243.75 204 L 131.25 204 Z M 131.25 162.601562 " clip-rule="nonzero"/></clipPath><clipPath id="e7f3a41e69"><path d="M 207 175 L 221.613281 175 L 221.613281 196.058594 L 207 196.058594 Z M 207 175 " clip-rule="nonzero"/></clipPath><clipPath id="3ef65e9e45"><path d="M 198.363281 170.558594 L 213 170.558594 L 213 192 L 198.363281 192 Z M 198.363281 170.558594 " clip-rule="nonzero"/></clipPath></defs><g clip-path="url(#945317619e)"><path fill="#f5faf3" d="M 219.351562 165.375 C 218.679688 164.304688 218.003906 163.230469 217.332031 162.160156 L 216.320312 160.554688 L 215.304688 158.949219 L 213.269531 155.742188 L 211.359375 152.734375 L 213.820312 149.128906 L 214.464844 148.179688 C 214.683594 147.863281 214.898438 147.546875 215.113281 147.230469 L 216.421875 145.34375 L 216.949219 144.578125 L 209.980469 144.53125 L 209.832031 144.796875 C 209.617188 145.179688 209.410156 145.566406 209.195312 145.953125 L 209.039062 146.242188 L 208.882812 146.535156 L 208.566406 147.113281 L 207.945312 148.28125 L 207.628906 148.882812 C 207.507812 148.699219 207.386719 148.515625 207.265625 148.332031 L 206.898438 147.777344 L 206.148438 146.675781 L 205.769531 146.128906 C 205.515625 145.761719 205.257812 145.398438 204.996094 145.039062 C 204.976562 145.007812 204.953125 145 204.921875 145.019531 C 204.890625 145.035156 204.882812 145.0625 204.902344 145.09375 C 205.09375 145.496094 205.285156 145.894531 205.488281 146.292969 L 206.089844 147.480469 L 206.398438 148.074219 L 206.707031 148.664062 C 206.914062 149.058594 207.121094 149.449219 207.332031 149.839844 L 207.636719 150.40625 L 208 149.835938 C 208.238281 149.464844 208.46875 149.089844 208.703125 148.71875 L 209.398438 147.59375 L 210.085938 146.46875 C 210.257812 146.183594 210.429688 145.898438 210.601562 145.613281 C 210.738281 145.613281 214.90625 145.597656 215.070312 145.59375 L 214.355469 146.730469 C 214.152344 147.054688 213.945312 147.375 213.738281 147.699219 L 213.121094 148.667969 L 210.644531 152.535156 L 210.515625 152.734375 L 210.644531 152.921875 L 212.792969 156.058594 L 214.941406 159.1875 L 216.019531 160.753906 L 217.097656 162.316406 C 217.816406 163.359375 218.539062 164.398438 219.261719 165.4375 C 219.28125 165.464844 219.308594 165.472656 219.335938 165.453125 C 219.367188 165.433594 219.371094 165.410156 219.351562 165.378906 Z M 219.351562 165.375 " fill-opacity="1" fill-rule="nonzero"/></g><g clip-path="url(#591a05ea44)"><path fill="#f5faf3" d="M 209.84375 159.164062 L 209.242188 157.976562 L 208.933594 157.382812 L 208.625 156.792969 C 208.417969 156.398438 208.210938 156.007812 208 155.617188 L 207.695312 155.050781 L 207.332031 155.621094 C 207.09375 155.992188 206.863281 156.367188 206.628906 156.738281 L 205.933594 157.863281 L 205.246094 158.988281 C 205.074219 159.273438 204.902344 159.558594 204.730469 159.84375 C 204.59375 159.84375 200.429688 159.863281 200.261719 159.863281 L 200.976562 158.726562 C 201.179688 158.402344 201.386719 158.082031 201.59375 157.757812 L 202.210938 156.792969 L 204.6875 152.921875 L 204.816406 152.722656 L 204.6875 152.535156 L 202.542969 149.40625 L 200.390625 146.28125 L 198.234375 143.164062 C 197.515625 142.121094 196.792969 141.082031 196.070312 140.046875 C 196.050781 140.019531 196.023438 140.015625 195.996094 140.03125 C 195.96875 140.050781 195.960938 140.074219 195.980469 140.105469 C 196.652344 141.175781 197.328125 142.246094 198 143.316406 L 199.011719 144.921875 L 200.027344 146.523438 L 202.0625 149.722656 L 203.96875 152.722656 L 201.515625 156.332031 L 200.867188 157.28125 C 200.652344 157.59375 200.4375 157.910156 200.21875 158.226562 L 198.910156 160.113281 L 198.382812 160.878906 L 205.351562 160.925781 L 205.5 160.660156 C 205.714844 160.277344 205.925781 159.890625 206.136719 159.503906 L 206.296875 159.214844 L 206.453125 158.921875 L 206.765625 158.339844 L 207.386719 157.175781 L 207.703125 156.574219 L 208.066406 157.125 L 208.433594 157.679688 L 209.183594 158.78125 L 209.5625 159.332031 C 209.816406 159.695312 210.074219 160.058594 210.335938 160.421875 C 210.355469 160.445312 210.378906 160.449219 210.40625 160.433594 C 210.433594 160.417969 210.441406 160.394531 210.425781 160.367188 C 210.238281 159.964844 210.042969 159.5625 209.84375 159.164062 Z M 209.84375 159.164062 " fill-opacity="1" fill-rule="nonzero"/></g><g fill="#ffffff" fill-opacity="1"><g transform="translate(155.729188, 157.617954)"><g><path d="M 0.59375 -11.203125 L 1.890625 -11.203125 C 1.910156 -11.203125 1.921875 -11.1875 1.921875 -11.15625 L 1.921875 0 C 1.921875 0.03125 1.910156 0.046875 1.890625 0.046875 L 0.59375 0.046875 C 0.5625 0.046875 0.546875 0.03125 0.546875 0 L 0.546875 -11.15625 C 0.546875 -11.1875 0.5625 -11.203125 0.59375 -11.203125 Z M 0.59375 -11.203125 "/></g></g></g><g fill="#ffffff" fill-opacity="1"><g transform="translate(158.208596, 157.617954)"><g><path d="M 0.59375 -11.203125 L 2.359375 -11.203125 C 2.390625 -11.203125 2.40625 -11.1875 2.40625 -11.15625 C 2.40625 -11.132812 2.390625 -11.125 2.359375 -11.125 L 1.4375 -11.125 C 1.664062 -11.03125 1.882812 -10.898438 2.09375 -10.734375 C 2.300781 -10.578125 2.460938 -10.382812 2.578125 -10.15625 L 7.5 -0.171875 L 7.5 -11.15625 C 7.5 -11.1875 7.507812 -11.203125 7.53125 -11.203125 C 7.5625 -11.203125 7.578125 -11.1875 7.578125 -11.15625 L 7.578125 0 C 7.578125 0.03125 7.5625 0.046875 7.53125 0.046875 L 6.09375 0.046875 C 6.070312 0.046875 6.0625 0.0351562 6.0625 0.015625 L 0.625 -10.96875 L 0.625 0 C 0.625 0.03125 0.613281 0.046875 0.59375 0.046875 C 0.5625 0.046875 0.546875 0.03125 0.546875 0 L 0.546875 -11.15625 C 0.546875 -11.1875 0.5625 -11.203125 0.59375 -11.203125 Z M 0.59375 -11.203125 "/></g></g></g><g fill="#ffffff" fill-opacity="1"><g transform="translate(166.350643, 157.617954)"><g><path d="M 7.578125 -2.78125 C 7.578125 -2.269531 7.445312 -1.796875 7.1875 -1.359375 C 6.9375 -0.929688 6.597656 -0.585938 6.171875 -0.328125 C 5.742188 -0.078125 5.269531 0.046875 4.75 0.046875 L 3.375 0.046875 C 2.851562 0.046875 2.378906 -0.078125 1.953125 -0.328125 C 1.523438 -0.585938 1.179688 -0.929688 0.921875 -1.359375 C 0.671875 -1.796875 0.546875 -2.269531 0.546875 -2.78125 C 0.546875 -2.8125 0.5625 -2.828125 0.59375 -2.828125 C 0.613281 -2.828125 0.625 -2.8125 0.625 -2.78125 C 0.625 -2.28125 0.75 -1.820312 1 -1.40625 C 1.25 -0.988281 1.582031 -0.65625 2 -0.40625 C 2.414062 -0.164062 2.875 -0.046875 3.375 -0.046875 L 4.75 -0.046875 C 5.019531 -0.046875 5.265625 -0.164062 5.484375 -0.40625 C 5.703125 -0.65625 5.875 -0.988281 6 -1.40625 C 6.132812 -1.820312 6.203125 -2.28125 6.203125 -2.78125 C 6.203125 -3.289062 6.132812 -3.753906 6 -4.171875 C 5.875 -4.585938 5.703125 -4.914062 5.484375 -5.15625 C 5.265625 -5.40625 5.019531 -5.53125 4.75 -5.53125 L 3.375 -5.53125 C 2.851562 -5.53125 2.378906 -5.65625 1.953125 -5.90625 C 1.523438 -6.164062 1.179688 -6.507812 0.921875 -6.9375 C 0.671875 -7.363281 0.546875 -7.84375 0.546875 -8.375 C 0.546875 -8.894531 0.671875 -9.367188 0.921875 -9.796875 C 1.179688 -10.222656 1.523438 -10.5625 1.953125 -10.8125 C 2.378906 -11.070312 2.851562 -11.203125 3.375 -11.203125 L 4.75 -11.203125 C 5.269531 -11.203125 5.742188 -11.070312 6.171875 -10.8125 C 6.597656 -10.5625 6.9375 -10.222656 7.1875 -9.796875 C 7.445312 -9.367188 7.578125 -8.894531 7.578125 -8.375 C 7.578125 -8.332031 7.5625 -8.3125 7.53125 -8.3125 C 7.507812 -8.3125 7.5 -8.332031 7.5 -8.375 C 7.5 -8.875 7.375 -9.332031 7.125 -9.75 C 6.875 -10.164062 6.539062 -10.5 6.125 -10.75 C 5.707031 -11 5.25 -11.125 4.75 -11.125 L 3.375 -11.125 C 3.101562 -11.125 2.859375 -11 2.640625 -10.75 C 2.421875 -10.5 2.242188 -10.164062 2.109375 -9.75 C 1.984375 -9.332031 1.921875 -8.875 1.921875 -8.375 C 1.921875 -7.863281 1.984375 -7.398438 2.109375 -6.984375 C 2.242188 -6.578125 2.421875 -6.242188 2.640625 -5.984375 C 2.859375 -5.734375 3.101562 -5.609375 3.375 -5.609375 L 4.75 -5.609375 C 5.269531 -5.609375 5.742188 -5.484375 6.171875 -5.234375 C 6.597656 -4.984375 6.9375 -4.640625 7.1875 -4.203125 C 7.445312 -3.773438 7.578125 -3.300781 7.578125 -2.78125 Z M 7.578125 -2.78125 "/></g></g></g><g fill="#ffffff" fill-opacity="1"><g transform="translate(174.49269, 157.617954)"><g><path d="M 0.59375 -11.203125 L 1.890625 -11.203125 C 1.910156 -11.203125 1.921875 -11.1875 1.921875 -11.15625 L 1.921875 0 C 1.921875 0.03125 1.910156 0.046875 1.890625 0.046875 L 0.59375 0.046875 C 0.5625 0.046875 0.546875 0.03125 0.546875 0 L 0.546875 -11.15625 C 0.546875 -11.1875 0.5625 -11.203125 0.59375 -11.203125 Z M 0.59375 -11.203125 "/></g></g></g><g fill="#ffffff" fill-opacity="1"><g transform="translate(176.972099, 157.617954)"><g><path d="M 2.1875 -9.546875 C 2.71875 -10.085938 3.328125 -10.5 4.015625 -10.78125 C 4.703125 -11.0625 5.414062 -11.203125 6.15625 -11.203125 C 6.914062 -11.203125 7.632812 -11.0625 8.3125 -10.78125 C 9 -10.5 9.609375 -10.085938 10.140625 -9.546875 C 10.148438 -9.523438 10.148438 -9.503906 10.140625 -9.484375 C 10.117188 -9.460938 10.097656 -9.460938 10.078125 -9.484375 C 9.554688 -10.003906 8.957031 -10.40625 8.28125 -10.6875 C 7.613281 -10.976562 6.90625 -11.125 6.15625 -11.125 C 5.570312 -11.125 5.023438 -10.976562 4.515625 -10.6875 C 4.003906 -10.394531 3.550781 -9.992188 3.15625 -9.484375 C 2.769531 -8.984375 2.46875 -8.394531 2.25 -7.71875 C 2.03125 -7.050781 1.921875 -6.335938 1.921875 -5.578125 C 1.921875 -4.859375 2.019531 -4.175781 2.21875 -3.53125 C 2.425781 -2.882812 2.703125 -2.3125 3.046875 -1.8125 C 3.398438 -1.320312 3.816406 -0.921875 4.296875 -0.609375 C 4.773438 -0.296875 5.285156 -0.113281 5.828125 -0.0625 C 6.328125 -0.03125 6.828125 -0.0625 7.328125 -0.15625 C 7.828125 -0.257812 8.304688 -0.4375 8.765625 -0.6875 L 8.765625 -5.578125 C 8.765625 -5.597656 8.78125 -5.609375 8.8125 -5.609375 L 10.109375 -5.609375 C 10.128906 -5.609375 10.140625 -5.597656 10.140625 -5.578125 C 10.140625 -5.546875 10.128906 -5.53125 10.109375 -5.53125 L 9.46875 -5.53125 C 9.675781 -5.445312 9.835938 -5.3125 9.953125 -5.125 C 10.078125 -4.945312 10.140625 -4.742188 10.140625 -4.515625 L 10.140625 0 C 10.140625 0.03125 10.128906 0.046875 10.109375 0.046875 L 8.8125 0.046875 C 8.78125 0.046875 8.765625 0.03125 8.765625 0 L 8.765625 -0.59375 C 7.953125 -0.175781 7.085938 0.0351562 6.171875 0.046875 C 6.160156 0.046875 6.15625 0.046875 6.15625 0.046875 C 6.125 0.046875 6.085938 0.046875 6.046875 0.046875 C 5.828125 0.0351562 5.609375 0.015625 5.390625 -0.015625 C 4.140625 -0.179688 3.070312 -0.707031 2.1875 -1.59375 C 1.632812 -2.15625 1.222656 -2.773438 0.953125 -3.453125 C 0.679688 -4.140625 0.546875 -4.847656 0.546875 -5.578125 C 0.546875 -6.304688 0.679688 -7.015625 0.953125 -7.703125 C 1.222656 -8.390625 1.632812 -9.003906 2.1875 -9.546875 Z M 2.1875 -9.546875 "/></g></g></g><g fill="#ffffff" fill-opacity="1"><g transform="translate(187.673525, 157.617954)"><g><path d="M 1.921875 -5.609375 L 6.203125 -5.609375 L 6.203125 -11.15625 C 6.203125 -11.1875 6.210938 -11.203125 6.234375 -11.203125 L 7.53125 -11.203125 C 7.5625 -11.203125 7.578125 -11.1875 7.578125 -11.15625 L 7.578125 0 C 7.578125 0.03125 7.5625 0.046875 7.53125 0.046875 L 6.234375 0.046875 C 6.210938 0.046875 6.203125 0.03125 6.203125 0 C 6.203125 -0.03125 6.210938 -0.046875 6.234375 -0.046875 L 6.875 -0.046875 C 6.675781 -0.128906 6.515625 -0.257812 6.390625 -0.4375 C 6.265625 -0.625 6.203125 -0.835938 6.203125 -1.078125 L 6.203125 -5.53125 L 1.921875 -5.53125 L 1.921875 0 C 1.921875 0.03125 1.910156 0.046875 1.890625 0.046875 L 0.59375 0.046875 C 0.5625 0.046875 0.546875 0.03125 0.546875 0 L 0.546875 -11.15625 C 0.546875 -11.1875 0.5625 -11.203125 0.59375 -11.203125 L 1.890625 -11.203125 C 1.910156 -11.203125 1.921875 -11.1875 1.921875 -11.15625 C 1.921875 -11.132812 1.910156 -11.125 1.890625 -11.125 L 1.25 -11.125 C 1.445312 -11.03125 1.609375 -10.890625 1.734375 -10.703125 C 1.859375 -10.523438 1.921875 -10.320312 1.921875 -10.09375 Z M 1.921875 -5.609375 "/></g></g></g><g fill="#ffffff" fill-opacity="1"><g transform="translate(195.815573, 157.617954)"><g><path d="M 0.59375 -11.125 C 0.5625 -11.125 0.546875 -11.132812 0.546875 -11.15625 C 0.546875 -11.1875 0.5625 -11.203125 0.59375 -11.203125 L 4.703125 -11.203125 C 4.710938 -11.203125 4.71875 -11.203125 4.71875 -11.203125 L 7.53125 -11.203125 C 7.5625 -11.203125 7.578125 -11.1875 7.578125 -11.15625 C 7.578125 -11.132812 7.5625 -11.125 7.53125 -11.125 L 4.75 -11.125 L 4.75 0 C 4.75 0.03125 4.734375 0.046875 4.703125 0.046875 L 3.40625 0.046875 C 3.382812 0.046875 3.375 0.03125 3.375 0 L 3.375 -11.125 Z M 0.59375 -11.125 "/></g></g></g><g clip-path="url(#331a15f08f)"><path fill="#cee492" d="M 131.25 162.601562 L 243.804688 162.601562 L 243.804688 204 L 131.25 204 Z M 131.25 162.601562 " fill-opacity="1" fill-rule="nonzero"/></g><g clip-path="url(#e7f3a41e69)"><path fill="#ff7512" d="M 221.753906 195.933594 C 221.078125 194.863281 220.40625 193.789062 219.730469 192.714844 L 218.71875 191.113281 L 217.703125 189.507812 L 215.667969 186.296875 L 213.761719 183.292969 L 216.21875 179.683594 L 216.867188 178.734375 C 217.082031 178.417969 217.296875 178.101562 217.515625 177.789062 L 218.820312 175.898438 L 219.351562 175.136719 L 212.378906 175.089844 L 212.234375 175.351562 C 212.019531 175.738281 211.808594 176.125 211.597656 176.507812 L 211.4375 176.800781 L 211.28125 177.089844 L 210.96875 177.671875 L 210.347656 178.839844 L 210.03125 179.441406 C 209.910156 179.257812 209.789062 179.074219 209.667969 178.890625 L 209.296875 178.335938 L 208.546875 177.234375 L 208.167969 176.683594 C 207.914062 176.316406 207.65625 175.953125 207.394531 175.59375 C 207.378906 175.5625 207.351562 175.558594 207.320312 175.574219 C 207.289062 175.59375 207.285156 175.617188 207.300781 175.648438 C 207.492188 176.050781 207.6875 176.453125 207.886719 176.847656 L 208.1875 177.445312 L 208.796875 178.632812 L 209.105469 179.222656 C 209.316406 179.613281 209.523438 180.007812 209.734375 180.398438 L 210.039062 180.960938 L 210.402344 180.394531 C 210.636719 180.023438 210.867188 179.648438 211.101562 179.273438 L 211.796875 178.152344 L 212.140625 177.589844 L 212.316406 177.308594 L 212.484375 177.027344 C 212.65625 176.742188 212.832031 176.457031 213.003906 176.167969 C 213.140625 176.167969 217.304688 176.152344 217.472656 176.148438 L 216.753906 177.289062 C 216.550781 177.613281 216.34375 177.933594 216.140625 178.257812 L 215.519531 179.222656 L 213.042969 183.089844 L 212.914062 183.292969 L 213.042969 183.480469 L 215.191406 186.613281 L 217.34375 189.746094 L 218.417969 191.308594 L 219.5 192.871094 C 220.21875 193.914062 220.9375 194.957031 221.664062 195.996094 C 221.683594 196.023438 221.707031 196.027344 221.738281 196.007812 C 221.765625 195.988281 221.769531 195.964844 221.753906 195.9375 Z M 221.753906 195.933594 " fill-opacity="1" fill-rule="nonzero"/></g><g clip-path="url(#3ef65e9e45)"><path fill="#ff7512" d="M 212.246094 189.722656 L 211.945312 189.125 L 211.640625 188.53125 L 211.335938 187.941406 L 211.023438 187.351562 C 210.816406 186.957031 210.609375 186.5625 210.398438 186.171875 L 210.09375 185.609375 L 209.730469 186.179688 C 209.496094 186.550781 209.261719 186.925781 209.03125 187.296875 L 208.332031 188.417969 L 207.988281 188.984375 L 207.816406 189.265625 L 207.648438 189.542969 C 207.472656 189.832031 207.300781 190.117188 207.132812 190.402344 C 206.996094 190.402344 202.828125 190.417969 202.664062 190.421875 L 203.375 189.285156 C 203.582031 188.960938 203.789062 188.640625 203.992188 188.316406 L 204.613281 187.347656 L 207.089844 183.480469 L 207.214844 183.277344 L 207.089844 183.09375 L 204.941406 179.964844 L 202.789062 176.839844 L 201.714844 175.277344 L 200.632812 173.71875 C 199.914062 172.679688 199.191406 171.640625 198.46875 170.605469 C 198.449219 170.574219 198.425781 170.570312 198.398438 170.589844 C 198.367188 170.609375 198.363281 170.632812 198.378906 170.664062 C 199.054688 171.734375 199.726562 172.804688 200.402344 173.875 L 201.414062 175.476562 L 204.460938 180.28125 L 206.371094 183.28125 L 203.914062 186.886719 L 203.269531 187.835938 C 203.050781 188.152344 202.835938 188.46875 202.617188 188.785156 L 201.3125 190.671875 L 200.785156 191.433594 L 207.753906 191.480469 L 207.902344 191.21875 C 208.117188 190.832031 208.324219 190.445312 208.539062 190.058594 L 208.851562 189.480469 L 209.167969 188.898438 L 209.785156 187.734375 L 210.101562 187.132812 L 210.464844 187.679688 L 210.835938 188.234375 L 211.210938 188.789062 L 211.582031 189.339844 L 211.960938 189.886719 C 212.214844 190.253906 212.472656 190.617188 212.738281 190.976562 C 212.753906 191.003906 212.777344 191.007812 212.804688 190.992188 C 212.835938 190.976562 212.839844 190.953125 212.828125 190.921875 C 212.640625 190.519531 212.445312 190.121094 212.246094 189.722656 Z M 212.246094 189.722656 " fill-opacity="1" fill-rule="nonzero"/></g><g fill="#000000" fill-opacity="1"><g transform="translate(158.129188, 188.174988)"><g><path d="M 0.59375 -11.203125 L 1.890625 -11.203125 C 1.910156 -11.203125 1.921875 -11.1875 1.921875 -11.15625 L 1.921875 0 C 1.921875 0.03125 1.910156 0.046875 1.890625 0.046875 L 0.59375 0.046875 C 0.5625 0.046875 0.546875 0.03125 0.546875 0 L 0.546875 -11.15625 C 0.546875 -11.1875 0.5625 -11.203125 0.59375 -11.203125 Z M 0.59375 -11.203125 "/></g></g></g><g fill="#000000" fill-opacity="1"><g transform="translate(160.608596, 188.174988)"><g><path d="M 0.59375 -11.203125 L 2.359375 -11.203125 C 2.390625 -11.203125 2.40625 -11.1875 2.40625 -11.15625 C 2.40625 -11.132812 2.390625 -11.125 2.359375 -11.125 L 1.4375 -11.125 C 1.664062 -11.03125 1.882812 -10.898438 2.09375 -10.734375 C 2.300781 -10.578125 2.460938 -10.382812 2.578125 -10.15625 L 7.5 -0.171875 L 7.5 -11.15625 C 7.5 -11.1875 7.507812 -11.203125 7.53125 -11.203125 C 7.5625 -11.203125 7.578125 -11.1875 7.578125 -11.15625 L 7.578125 0 C 7.578125 0.03125 7.5625 0.046875 7.53125 0.046875 L 6.09375 0.046875 C 6.070312 0.046875 6.0625 0.0351562 6.0625 0.015625 L 0.625 -10.96875 L 0.625 0 C 0.625 0.03125 0.613281 0.046875 0.59375 0.046875 C 0.5625 0.046875 0.546875 0.03125 0.546875 0 L 0.546875 -11.15625 C 0.546875 -11.1875 0.5625 -11.203125 0.59375 -11.203125 Z M 0.59375 -11.203125 "/></g></g></g><g fill="#000000" fill-opacity="1"><g transform="translate(168.750643, 188.174988)"><g><path d="M 7.578125 -2.78125 C 7.578125 -2.269531 7.445312 -1.796875 7.1875 -1.359375 C 6.9375 -0.929688 6.597656 -0.585938 6.171875 -0.328125 C 5.742188 -0.078125 5.269531 0.046875 4.75 0.046875 L 3.375 0.046875 C 2.851562 0.046875 2.378906 -0.078125 1.953125 -0.328125 C 1.523438 -0.585938 1.179688 -0.929688 0.921875 -1.359375 C 0.671875 -1.796875 0.546875 -2.269531 0.546875 -2.78125 C 0.546875 -2.8125 0.5625 -2.828125 0.59375 -2.828125 C 0.613281 -2.828125 0.625 -2.8125 0.625 -2.78125 C 0.625 -2.28125 0.75 -1.820312 1 -1.40625 C 1.25 -0.988281 1.582031 -0.65625 2 -0.40625 C 2.414062 -0.164062 2.875 -0.046875 3.375 -0.046875 L 4.75 -0.046875 C 5.019531 -0.046875 5.265625 -0.164062 5.484375 -0.40625 C 5.703125 -0.65625 5.875 -0.988281 6 -1.40625 C 6.132812 -1.820312 6.203125 -2.28125 6.203125 -2.78125 C 6.203125 -3.289062 6.132812 -3.753906 6 -4.171875 C 5.875 -4.585938 5.703125 -4.914062 5.484375 -5.15625 C 5.265625 -5.40625 5.019531 -5.53125 4.75 -5.53125 L 3.375 -5.53125 C 2.851562 -5.53125 2.378906 -5.65625 1.953125 -5.90625 C 1.523438 -6.164062 1.179688 -6.507812 0.921875 -6.9375 C 0.671875 -7.363281 0.546875 -7.84375 0.546875 -8.375 C 0.546875 -8.894531 0.671875 -9.367188 0.921875 -9.796875 C 1.179688 -10.222656 1.523438 -10.5625 1.953125 -10.8125 C 2.378906 -11.070312 2.851562 -11.203125 3.375 -11.203125 L 4.75 -11.203125 C 5.269531 -11.203125 5.742188 -11.070312 6.171875 -10.8125 C 6.597656 -10.5625 6.9375 -10.222656 7.1875 -9.796875 C 7.445312 -9.367188 7.578125 -8.894531 7.578125 -8.375 C 7.578125 -8.332031 7.5625 -8.3125 7.53125 -8.3125 C 7.507812 -8.3125 7.5 -8.332031 7.5 -8.375 C 7.5 -8.875 7.375 -9.332031 7.125 -9.75 C 6.875 -10.164062 6.539062 -10.5 6.125 -10.75 C 5.707031 -11 5.25 -11.125 4.75 -11.125 L 3.375 -11.125 C 3.101562 -11.125 2.859375 -11 2.640625 -10.75 C 2.421875 -10.5 2.242188 -10.164062 2.109375 -9.75 C 1.984375 -9.332031 1.921875 -8.875 1.921875 -8.375 C 1.921875 -7.863281 1.984375 -7.398438 2.109375 -6.984375 C 2.242188 -6.578125 2.421875 -6.242188 2.640625 -5.984375 C 2.859375 -5.734375 3.101562 -5.609375 3.375 -5.609375 L 4.75 -5.609375 C 5.269531 -5.609375 5.742188 -5.484375 6.171875 -5.234375 C 6.597656 -4.984375 6.9375 -4.640625 7.1875 -4.203125 C 7.445312 -3.773438 7.578125 -3.300781 7.578125 -2.78125 Z M 7.578125 -2.78125 "/></g></g></g><g fill="#000000" fill-opacity="1"><g transform="translate(176.89269, 188.174988)"><g><path d="M 0.59375 -11.203125 L 1.890625 -11.203125 C 1.910156 -11.203125 1.921875 -11.1875 1.921875 -11.15625 L 1.921875 0 C 1.921875 0.03125 1.910156 0.046875 1.890625 0.046875 L 0.59375 0.046875 C 0.5625 0.046875 0.546875 0.03125 0.546875 0 L 0.546875 -11.15625 C 0.546875 -11.1875 0.5625 -11.203125 0.59375 -11.203125 Z M 0.59375 -11.203125 "/></g></g></g><g fill="#000000" fill-opacity="1"><g transform="translate(179.372098, 188.174988)"><g><path d="M 2.1875 -9.546875 C 2.71875 -10.085938 3.328125 -10.5 4.015625 -10.78125 C 4.703125 -11.0625 5.414062 -11.203125 6.15625 -11.203125 C 6.914062 -11.203125 7.632812 -11.0625 8.3125 -10.78125 C 9 -10.5 9.609375 -10.085938 10.140625 -9.546875 C 10.148438 -9.523438 10.148438 -9.503906 10.140625 -9.484375 C 10.117188 -9.460938 10.097656 -9.460938 10.078125 -9.484375 C 9.554688 -10.003906 8.957031 -10.40625 8.28125 -10.6875 C 7.613281 -10.976562 6.90625 -11.125 6.15625 -11.125 C 5.570312 -11.125 5.023438 -10.976562 4.515625 -10.6875 C 4.003906 -10.394531 3.550781 -9.992188 3.15625 -9.484375 C 2.769531 -8.984375 2.46875 -8.394531 2.25 -7.71875 C 2.03125 -7.050781 1.921875 -6.335938 1.921875 -5.578125 C 1.921875 -4.859375 2.019531 -4.175781 2.21875 -3.53125 C 2.425781 -2.882812 2.703125 -2.3125 3.046875 -1.8125 C 3.398438 -1.320312 3.816406 -0.921875 4.296875 -0.609375 C 4.773438 -0.296875 5.285156 -0.113281 5.828125 -0.0625 C 6.328125 -0.03125 6.828125 -0.0625 7.328125 -0.15625 C 7.828125 -0.257812 8.304688 -0.4375 8.765625 -0.6875 L 8.765625 -5.578125 C 8.765625 -5.597656 8.78125 -5.609375 8.8125 -5.609375 L 10.109375 -5.609375 C 10.128906 -5.609375 10.140625 -5.597656 10.140625 -5.578125 C 10.140625 -5.546875 10.128906 -5.53125 10.109375 -5.53125 L 9.46875 -5.53125 C 9.675781 -5.445312 9.835938 -5.3125 9.953125 -5.125 C 10.078125 -4.945312 10.140625 -4.742188 10.140625 -4.515625 L 10.140625 0 C 10.140625 0.03125 10.128906 0.046875 10.109375 0.046875 L 8.8125 0.046875 C 8.78125 0.046875 8.765625 0.03125 8.765625 0 L 8.765625 -0.59375 C 7.953125 -0.175781 7.085938 0.0351562 6.171875 0.046875 C 6.160156 0.046875 6.15625 0.046875 6.15625 0.046875 C 6.125 0.046875 6.085938 0.046875 6.046875 0.046875 C 5.828125 0.0351562 5.609375 0.015625 5.390625 -0.015625 C 4.140625 -0.179688 3.070312 -0.707031 2.1875 -1.59375 C 1.632812 -2.15625 1.222656 -2.773438 0.953125 -3.453125 C 0.679688 -4.140625 0.546875 -4.847656 0.546875 -5.578125 C 0.546875 -6.304688 0.679688 -7.015625 0.953125 -7.703125 C 1.222656 -8.390625 1.632812 -9.003906 2.1875 -9.546875 Z M 2.1875 -9.546875 "/></g></g></g><g fill="#000000" fill-opacity="1"><g transform="translate(190.073525, 188.174988)"><g><path d="M 1.921875 -5.609375 L 6.203125 -5.609375 L 6.203125 -11.15625 C 6.203125 -11.1875 6.210938 -11.203125 6.234375 -11.203125 L 7.53125 -11.203125 C 7.5625 -11.203125 7.578125 -11.1875 7.578125 -11.15625 L 7.578125 0 C 7.578125 0.03125 7.5625 0.046875 7.53125 0.046875 L 6.234375 0.046875 C 6.210938 0.046875 6.203125 0.03125 6.203125 0 C 6.203125 -0.03125 6.210938 -0.046875 6.234375 -0.046875 L 6.875 -0.046875 C 6.675781 -0.128906 6.515625 -0.257812 6.390625 -0.4375 C 6.265625 -0.625 6.203125 -0.835938 6.203125 -1.078125 L 6.203125 -5.53125 L 1.921875 -5.53125 L 1.921875 0 C 1.921875 0.03125 1.910156 0.046875 1.890625 0.046875 L 0.59375 0.046875 C 0.5625 0.046875 0.546875 0.03125 0.546875 0 L 0.546875 -11.15625 C 0.546875 -11.1875 0.5625 -11.203125 0.59375 -11.203125 L 1.890625 -11.203125 C 1.910156 -11.203125 1.921875 -11.1875 1.921875 -11.15625 C 1.921875 -11.132812 1.910156 -11.125 1.890625 -11.125 L 1.25 -11.125 C 1.445312 -11.03125 1.609375 -10.890625 1.734375 -10.703125 C 1.859375 -10.523438 1.921875 -10.320312 1.921875 -10.09375 Z M 1.921875 -5.609375 "/></g></g></g><g fill="#000000" fill-opacity="1"><g transform="translate(198.215572, 188.174988)"><g><path d="M 0.59375 -11.125 C 0.5625 -11.125 0.546875 -11.132812 0.546875 -11.15625 C 0.546875 -11.1875 0.5625 -11.203125 0.59375 -11.203125 L 4.703125 -11.203125 C 4.710938 -11.203125 4.71875 -11.203125 4.71875 -11.203125 L 7.53125 -11.203125 C 7.5625 -11.203125 7.578125 -11.1875 7.578125 -11.15625 C 7.578125 -11.132812 7.5625 -11.125 7.53125 -11.125 L 4.75 -11.125 L 4.75 0 C 4.75 0.03125 4.734375 0.046875 4.703125 0.046875 L 3.40625 0.046875 C 3.382812 0.046875 3.375 0.03125 3.375 0 L 3.375 -11.125 Z M 0.59375 -11.125 "/></g></g></g></svg>